<?xml version="1.0" encoding="UTF-8"?>
<svg xmlns="http://www.w3.org/2000/svg" version="1.1" viewBox="0 0 800 800">
  <defs>
    <style>
      .cls-1 {
        fill: #000;
        stroke-width: 0px;
      }
    </style>
  </defs>
  <g id="_レイヤー_1" data-name="レイヤー 1" focusable="false">
    <path class="cls-1" d="M53.6,458.7c-20.3-26.5-31.6-70-26.3-101.2,9.5-55.6,55.1-101.1,108.4-108.1,38.8-5.1,57.2-.4,100.8,25.5,34.6,20.6,61.6,27.3,88,22,49.2-9.9,85.8-52.4,88.7-103,4.7-80.5,84.5-139,161.8-118.8,64.8,17,106.6,81.4,95.7,147.7-3.4,20.5-6.5,27.4-23.8,51.6-19,26.6-21.5,28.8-51.9,45.1-18,9.7-37.7,23.4-45.3,31.5-27.2,29.5-34.8,78-18.4,117.2,7.2,17.1,12.3,23,39,45.1,23.2,19.1,33.6,30.3,42.2,45.3,48.1,83.6-.6,184.6-94.2,195.2-37.1,4.2-64.6-3.9-95-28-20.1-16-25.9-22.9-36.2-43.5-12-24.2-16.5-51.8-12.7-77.3,2.5-16.6-5.9-56.8-14.9-71.2-29.9-47.6-84.2-63.9-139.8-41.8-55.9,22.1-99.6,18.9-139.4-10.2-11.5-8.2-23.4-18.7-26.7-23.1h0ZM150.2,433.5c41.8,3,73.2-39.3,57.2-77.2-16.7-39.7-67.5-48.2-96.2-15.6-29.8,33.8-6.4,89.5,39,92.8h0ZM499.6,681.5c56.1,1.2,81-69.4,35.9-101.7-44-31.4-100.4,5.8-88.8,58.6,3.4,15.3,6.6,19.7,23.6,32.3,10,7.2,18.7,10.5,29.4,10.8h0ZM397.9,455.9c30.9,0,54.2-19,58.6-47.7,7-45.2-41.9-80.1-82.3-58.7-23.8,12.6-34.1,35.4-28.5,63.1,4.9,24.3,28,43.4,52.2,43.3h0ZM539.7,257c42.6,0,70-38.2,55.4-76.9-11.6-30.6-49.9-44.9-79.1-29.5-23.8,12.5-34.1,35.4-28.5,63.1,4.9,24.3,28,43.4,52.2,43.3h0Z"/>
  </g>
</svg>